<?xml version="1.0" encoding="UTF-8"?>
<!DOCTYPE svg PUBLIC "-//W3C//DTD SVG 1.1//EN" "http://www.w3.org/Graphics/SVG/1.1/DTD/svg11.dtd">
<svg xmlns="http://www.w3.org/2000/svg" version="1.1" width="758px" height="571px" style="shape-rendering:geometricPrecision; text-rendering:geometricPrecision; image-rendering:optimizeQuality; fill-rule:evenodd; clip-rule:evenodd" xmlns:xlink="http://www.w3.org/1999/xlink">
<g><path style="opacity:1" fill="#fdfdfd" d="M -0.5,-0.5 C 252.167,-0.5 504.833,-0.5 757.5,-0.5C 757.5,189.833 757.5,380.167 757.5,570.5C 504.833,570.5 252.167,570.5 -0.5,570.5C -0.5,380.167 -0.5,189.833 -0.5,-0.5 Z"/></g>
<g><path style="opacity:1" fill="#868686" d="M 16.5,22.5 C 256.5,22.5 496.5,22.5 736.5,22.5C 736.5,195.833 736.5,369.167 736.5,542.5C 496.5,542.5 256.5,542.5 16.5,542.5C 16.5,369.167 16.5,195.833 16.5,22.5 Z"/></g>
<g><path style="opacity:1" fill="#5e5e5e" d="M 17.5,23.5 C 256.833,23.5 496.167,23.5 735.5,23.5C 735.5,196.167 735.5,368.833 735.5,541.5C 496.167,541.5 256.833,541.5 17.5,541.5C 17.5,368.833 17.5,196.167 17.5,23.5 Z"/></g>
<g><path style="opacity:1" fill="#d6d6d6" d="M 66.5,72.5 C 236.5,72.5 406.5,72.5 576.5,72.5C 576.5,205.833 576.5,339.167 576.5,472.5C 406.5,472.5 236.5,472.5 66.5,472.5C 66.5,339.167 66.5,205.833 66.5,72.5 Z"/></g>
<g><path style="opacity:1" fill="#fdfdfd" d="M 67.5,73.5 C 236.833,73.5 406.167,73.5 575.5,73.5C 575.5,206.167 575.5,338.833 575.5,471.5C 406.167,471.5 236.833,471.5 67.5,471.5C 67.5,338.833 67.5,206.167 67.5,73.5 Z"/></g>
<g><path style="opacity:1" fill="#fffd40" d="M 215.5,82.5 C 193.006,83.4975 170.339,83.8308 147.5,83.5C 147.5,209.5 147.5,335.5 147.5,461.5C 170.339,461.169 193.006,461.503 215.5,462.5C 192.5,462.5 169.5,462.5 146.5,462.5C 146.5,335.833 146.5,209.167 146.5,82.5C 169.5,82.5 192.5,82.5 215.5,82.5 Z"/></g>
<g><path style="opacity:1" fill="#fefd00" d="M 215.5,82.5 C 215.833,82.5 216.167,82.5 216.5,82.5C 216.5,82.8333 216.5,83.1667 216.5,83.5C 216.5,209.5 216.5,335.5 216.5,461.5C 216.5,461.833 216.5,462.167 216.5,462.5C 216.167,462.5 215.833,462.5 215.5,462.5C 193.006,461.503 170.339,461.169 147.5,461.5C 147.5,335.5 147.5,209.5 147.5,83.5C 170.339,83.8308 193.006,83.4975 215.5,82.5 Z"/></g>
<g><path style="opacity:1" fill="#07fc00" d="M 216.5,83.5 C 239.5,83.5 262.5,83.5 285.5,83.5C 285.5,209.5 285.5,335.5 285.5,461.5C 262.5,461.5 239.5,461.5 216.5,461.5C 216.5,335.5 216.5,209.5 216.5,83.5 Z"/></g>
<g><path style="opacity:1" fill="#1ffd40" d="M 216.5,83.5 C 216.5,83.1667 216.5,82.8333 216.5,82.5C 239.833,82.5 263.167,82.5 286.5,82.5C 286.5,209.167 286.5,335.833 286.5,462.5C 263.167,462.5 239.833,462.5 216.5,462.5C 216.5,462.167 216.5,461.833 216.5,461.5C 239.5,461.5 262.5,461.5 285.5,461.5C 285.5,335.5 285.5,209.5 285.5,83.5C 262.5,83.5 239.5,83.5 216.5,83.5 Z"/></g>
<g><path style="opacity:1" fill="#04fefe" d="M 286.5,82.5 C 309.5,82.5 332.5,82.5 355.5,82.5C 355.5,209.167 355.5,335.833 355.5,462.5C 332.5,462.5 309.5,462.5 286.5,462.5C 286.5,335.833 286.5,209.167 286.5,82.5 Z"/></g>
<g><path style="opacity:1" fill="#fc03fe" d="M 356.5,82.5 C 379.833,82.5 403.167,82.5 426.5,82.5C 426.5,209.167 426.5,335.833 426.5,462.5C 403.167,462.5 379.833,462.5 356.5,462.5C 356.5,335.833 356.5,209.167 356.5,82.5 Z"/></g>
<g><path style="opacity:1" fill="#eb133f" d="M 426.5,82.5 C 449.833,82.5 473.167,82.5 496.5,82.5C 496.5,209.167 496.5,335.833 496.5,462.5C 473.167,462.5 449.833,462.5 426.5,462.5C 426.5,335.833 426.5,209.167 426.5,82.5 Z"/></g>
<g><path style="opacity:1" fill="#fd0000" d="M 427.5,83.5 C 450.167,83.5 472.833,83.5 495.5,83.5C 495.5,209.5 495.5,335.5 495.5,461.5C 472.833,461.5 450.167,461.5 427.5,461.5C 427.5,335.5 427.5,209.5 427.5,83.5 Z"/></g>
<g><path style="opacity:1" fill="#4431e5" d="M 496.5,82.5 C 519.833,82.5 543.167,82.5 566.5,82.5C 566.5,209.167 566.5,335.833 566.5,462.5C 543.167,462.5 519.833,462.5 496.5,462.5C 496.5,335.833 496.5,209.167 496.5,82.5 Z"/></g>
<g><path style="opacity:1" fill="#0400f7" d="M 497.5,83.5 C 520.167,83.5 542.833,83.5 565.5,83.5C 565.5,209.5 565.5,335.5 565.5,461.5C 542.833,461.5 520.167,461.5 497.5,461.5C 497.5,335.5 497.5,209.5 497.5,83.5 Z"/></g>
<g><path style="opacity:1" fill="#fdfdfd" d="M 662.5,169.5 C 664.311,171.385 665.478,173.719 666,176.5C 666.898,182.659 666.398,188.659 664.5,194.5C 663.504,194.414 662.671,194.748 662,195.5C 661.261,197.221 660.427,198.887 659.5,200.5C 656.506,202.827 653.839,205.494 651.5,208.5C 649.456,209.508 647.456,210.508 645.5,211.5C 637.184,212.835 629.184,211.835 621.5,208.5C 619.973,208.573 618.973,207.906 618.5,206.5C 615.395,203.408 612.729,200.075 610.5,196.5C 607.853,189.749 607.02,182.749 608,175.5C 610,172.167 612,168.833 614,165.5C 616.859,162.384 619.692,159.384 622.5,156.5C 634.758,153.022 646.091,154.856 656.5,162C 658.397,164.693 660.397,167.193 662.5,169.5 Z"/></g>
<g><path style="opacity:1" fill="#d1d1d1" d="M 662.5,169.5 C 660.397,167.193 658.397,164.693 656.5,162C 646.091,154.856 634.758,153.022 622.5,156.5C 624.116,155.011 626.116,154.011 628.5,153.5C 635.177,152.286 641.844,152.286 648.5,153.5C 648.5,154.5 648.5,155.5 648.5,156.5C 653.73,158.313 658.23,161.313 662,165.5C 662.49,166.793 662.657,168.127 662.5,169.5 Z"/></g>
<g><path style="opacity:1" fill="#c0c0c0" d="M 622.5,156.5 C 619.692,159.384 616.859,162.384 614,165.5C 612,168.833 610,172.167 608,175.5C 607.02,182.749 607.853,189.749 610.5,196.5C 608.52,195.152 607.353,193.152 607,190.5C 606.333,184.833 606.333,179.167 607,173.5C 609.613,170.676 611.279,167.342 612,163.5C 614.956,160.278 618.456,157.944 622.5,156.5 Z"/></g>
<g><path style="opacity:1" fill="#9d9d9d" d="M 610.5,196.5 C 612.729,200.075 615.395,203.408 618.5,206.5C 613.943,204.617 611.277,201.283 610.5,196.5 Z"/></g>
<g><path style="opacity:1" fill="#bababa" d="M 664.5,194.5 C 663.069,196.189 662.236,198.189 662,200.5C 658.748,203.537 655.248,206.204 651.5,208.5C 653.839,205.494 656.506,202.827 659.5,200.5C 660.427,198.887 661.261,197.221 662,195.5C 662.671,194.748 663.504,194.414 664.5,194.5 Z"/></g>
<g><path style="opacity:1" fill="#8f8f8f" d="M 621.5,208.5 C 629.184,211.835 637.184,212.835 645.5,211.5C 645.389,212.117 645.056,212.617 644.5,213C 637.285,214.113 630.285,213.446 623.5,211C 622.619,210.292 621.953,209.458 621.5,208.5 Z"/></g>
<g><path style="opacity:1" fill="#898989" d="M 653.5,262.5 C 650.646,260.491 647.646,258.657 644.5,257C 639.833,256.333 635.167,256.333 630.5,257C 629.429,257.852 628.429,258.685 627.5,259.5C 625.821,259.892 624.154,260.392 622.5,261C 619.938,263.733 617.271,266.233 614.5,268.5C 621.511,256.763 631.845,252.596 645.5,256C 649.152,256.988 651.819,259.155 653.5,262.5 Z"/></g>
<g><path style="opacity:1" fill="#fbfbfb" d="M 658.5,296.5 C 658.5,296.833 658.5,297.167 658.5,297.5C 654.917,298.454 652.25,300.621 650.5,304C 647.977,304.518 645.977,305.852 644.5,308C 637.316,308.997 630.316,308.331 623.5,306C 620.657,302.99 617.657,300.157 614.5,297.5C 612.777,292.656 611.444,287.656 610.5,282.5C 610.55,279.024 611.217,275.69 612.5,272.5C 612.229,270.62 612.896,269.287 614.5,268.5C 617.271,266.233 619.938,263.733 622.5,261C 624.154,260.392 625.821,259.892 627.5,259.5C 643.91,256.217 655.077,262.217 661,277.5C 661.992,284.09 661.159,290.423 658.5,296.5 Z"/></g>
<g><path style="opacity:1" fill="#d2d2d2" d="M 653.5,262.5 C 656.776,265.836 659.609,269.502 662,273.5C 662.667,279.167 662.667,284.833 662,290.5C 661.284,292.879 660.117,294.879 658.5,296.5C 661.159,290.423 661.992,284.09 661,277.5C 655.077,262.217 643.91,256.217 627.5,259.5C 628.429,258.685 629.429,257.852 630.5,257C 635.167,256.333 639.833,256.333 644.5,257C 647.646,258.657 650.646,260.491 653.5,262.5 Z"/></g>
<g><path style="opacity:1" fill="#939393" d="M 612.5,272.5 C 611.217,275.69 610.55,279.024 610.5,282.5C 611.444,287.656 612.777,292.656 614.5,297.5C 609.838,290.982 608.338,283.648 610,275.5C 610.377,274.058 611.21,273.058 612.5,272.5 Z"/></g>
<g><path style="opacity:1" fill="#838383" d="M 614.5,297.5 C 617.657,300.157 620.657,302.99 623.5,306C 630.316,308.331 637.316,308.997 644.5,308C 645.977,305.852 647.977,304.518 650.5,304C 652.25,300.621 654.917,298.454 658.5,297.5C 653.847,306.164 646.513,310.164 636.5,309.5C 626.261,310.476 618.928,306.476 614.5,297.5 Z"/></g>
<g><path style="opacity:1" fill="#fbfbfb" d="M 650.5,368.5 C 652.674,372.786 654.007,377.453 654.5,382.5C 653.892,385.145 653.392,387.812 653,390.5C 651.117,392.409 649.617,394.575 648.5,397C 647.207,397.49 645.873,397.657 644.5,397.5C 644.5,398.5 644.5,399.5 644.5,400.5C 640.019,402.382 635.353,402.882 630.5,402C 629.944,401.617 629.611,401.117 629.5,400.5C 623.441,396.078 619.774,390.078 618.5,382.5C 619.169,379.148 619.836,375.815 620.5,372.5C 626.639,362.623 635.306,359.79 646.5,364C 648.644,364.792 649.977,366.292 650.5,368.5 Z"/></g>
<g><path style="opacity:1" fill="#d6d6d6" d="M 650.5,368.5 C 653.472,370.361 655.305,373.028 656,376.5C 656.667,380.833 656.667,385.167 656,389.5C 653.656,392.211 651.489,395.044 649.5,398C 647.922,399.094 646.255,399.928 644.5,400.5C 644.5,399.5 644.5,398.5 644.5,397.5C 645.873,397.657 647.207,397.49 648.5,397C 649.617,394.575 651.117,392.409 653,390.5C 653.392,387.812 653.892,385.145 654.5,382.5C 654.007,377.453 652.674,372.786 650.5,368.5 Z"/></g>
<g><path style="opacity:1" fill="#cfcfcf" d="M 620.5,372.5 C 619.836,375.815 619.169,379.148 618.5,382.5C 619.774,390.078 623.441,396.078 629.5,400.5C 628.127,400.657 626.793,400.49 625.5,400C 617.877,394.357 615.043,386.857 617,377.5C 617.697,375.416 618.864,373.749 620.5,372.5 Z"/></g>
<g><path style="opacity:1" fill="#91e1ff" d="M 355.5,82.5 C 355.833,82.5 356.167,82.5 356.5,82.5C 356.5,209.167 356.5,335.833 356.5,462.5C 333.167,463.833 309.833,463.833 286.5,462.5C 309.5,462.5 332.5,462.5 355.5,462.5C 355.5,335.833 355.5,209.167 355.5,82.5 Z"/></g>
</svg>
