<?xml version="1.0" encoding="utf-8" ?><svg xmlns="http://www.w3.org/2000/svg" xmlns:xlink="http://www.w3.org/1999/xlink" width="1024" height="1024" viewBox="0 0 1024 1024"><path fill="white" d="M0 0L1024 0L1024 1024L0 1024L0 0Z"/><path fill="#261E1A" d="M161.439 159.242L323.486 159.301C329.68 173.493 335.38 188.335 341.229 202.683C353.293 232.049 365.203 261.478 376.957 290.97L464.123 507.949C473.439 531.664 482.546 555.46 491.441 579.335C496.116 591.845 500.974 606.529 506.136 618.499C511.873 602.893 516.875 586.625 522.802 570.664C574.767 433.03 628.041 295.893 682.616 159.272L846.577 159.313L846.563 203.074C833.325 205.112 815.945 206.566 805.654 215.642C794.266 225.687 791.88 243.784 790.43 258.093C788.55 276.647 789.882 295.43 790.762 314.03L793.276 369.943L800.906 538.874L803.599 601.062C804.277 617.707 805.211 634.412 804.575 651.065C804.183 661.322 803.543 671.581 802.929 681.828C822.719 681.83 844.07 682.762 864.171 683.015L864.188 734.365L651.909 734.426L651.909 689.799C682.604 686.366 703.51 680.017 706.841 645.189C709.404 618.389 707.063 591.537 705.994 564.665C703.932 517.306 701.625 469.959 699.071 422.624C696.768 373.793 694.065 325.884 693.872 276.975C690.9 283.232 687.189 293.509 684.593 300.256L670.676 336.282L629.964 441.966L514.99 741.491L456.476 741.498C446.143 717.941 436.169 692.86 426.157 669.034L371.702 540.046C334.002 450.27 298.876 371.246 273.655 276.131C273.149 286.022 274.166 304.143 274.397 314.539C274.994 338 275.211 361.468 275.048 384.936L272.623 530.344C272.018 567.02 271.675 603.771 270.515 640.434C270.067 654.58 268.143 668.032 267.393 681.884C287.932 681.933 309.235 682.856 329.988 683.062L329.987 734.427L152.928 734.401L152.97 689.705C156.964 689.299 161.01 688.389 164.881 687.786C192.083 683.552 205.116 672.446 208.679 644.374C211.483 622.285 211.044 600.199 211.631 577.694L214.425 468.466L219.563 281.953C220.369 258.181 221.025 234.405 221.533 210.625C201.637 210.423 181.232 210.642 161.302 210.657C161.36 194.336 160.799 175.31 161.439 159.242Z"/><path fill="#C8522B" d="M587.443 803.209C601.223 802.411 617.239 802.762 630.694 805.846C648.083 809.831 665.621 816.815 683.688 817.407C704.724 818.095 726.351 813.107 747.475 812.315C756.932 811.96 767.083 811.789 776.473 812.972C787.917 814.415 797.602 816.166 809.25 816.547C828.955 817.256 848.437 812.913 868.105 815.031C879.003 816.204 891.366 820.097 888.993 833.772C888.298 837.598 886.043 840.962 882.768 843.059C876.942 846.813 870.591 843.807 864.383 843.347C843.757 841.821 823.217 846.275 802.48 844.839C787.141 843.777 772.403 839.886 757.014 840.161C730.217 840.638 703.639 847.594 676.796 845.531C661.77 844.394 648.45 839.662 634.023 835.841C621.26 832.461 608.146 830.8 594.939 831.171C577.966 831.648 557.659 835.548 541.38 839.977C492.207 853.356 466.712 858.931 416.239 846.571C379.156 837.336 349.22 827.661 310.894 836.386C295.106 839.98 278.59 844.941 262.621 845.311C240.292 845.828 222.281 837.668 199.556 842.237C188.229 844.514 180.342 847.786 169.697 852.338C165.698 854.048 154.987 858.801 151.023 859.393C147.022 860.013 142.943 858.942 139.763 856.436C136.778 854.057 134.894 850.563 134.547 846.761C134.242 843.057 135.469 839.39 137.942 836.616C141.934 832.06 153.441 828.588 159.285 826.013C184.318 814.983 205.52 809.534 233.252 813.766C244.772 815.524 256.992 817.704 268.801 816.372C280.174 815.088 291.741 811.519 302.953 808.822C320.725 804.548 339.076 803.2 357.282 804.831C394.806 808.458 431.851 826.495 470.62 824.752C493.345 823.731 512.643 818.14 534.417 812.36C552.136 807.656 569.202 804.58 587.443 803.209Z"/></svg>